<?xml version="1.0" encoding="UTF-8" standalone="no"?>
<svg
   width="255.99998"
   height="78.314003"
   viewBox="0 0 67.733329 20.720588"
   version="1.1"
   id="JM-logo"
   xmlns="http://www.w3.org/2000/svg"
   xmlns:svg="http://www.w3.org/2000/svg">
  <g
     id="jm"
     class="JM-logo__jm-group"
     transform="matrix(0.09170011,0,0,0.09170313,-1.3426703,-13.027762)">
    <path
       style="fill:none;stroke:#1e90ff;stroke-width:32.6422;stroke-linecap:round;stroke-linejoin:round;stroke-opacity:1;paint-order:normal"
       d="m 294.51542,198.82659 c 57.75099,60.67636 -11.33134,218.87243 -108.91981,114.48594"
       id="j"
       class="JM-logo__j" />
    <path
       style="display:inline;fill:none;stroke:#1e90ff;stroke-width:32.6111;stroke-linecap:round;stroke-linejoin:round;stroke-opacity:1;paint-order:fill markers stroke"
       d="m 170.47387,211.35078 c 63.60558,-4.66523 147.90373,-43.13442 222.04248,-52.86148 17.67003,-1.51476 19.84077,8.54425 20.47473,14.64474 -2.33237,15.89532 -45.81636,65.29105 -55.78886,86.49105 25.7831,-15.05333 79.32976,-72.26693 121.58501,-72.92684 0.28109,14.2211 -14.3575,58.96575 5.04779,62.14087 48.7994,-3.72238 118.17024,-24.07337 111.74624,9.77557 l -21.97146,93.09728"
       id="m"
       class="JM-logo__m" />
    <path
       style="fill:none;fill-rule:evenodd;stroke:#1e90ff;stroke-width:6.47914;stroke-linecap:round;stroke-linejoin:round;stroke-miterlimit:4;stroke-opacity:1;paint-order:fill markers stroke"
       d="m 570.09582,355.59595 c 29.53052,-0.84352 36.54359,-7.04816 52.53635,-11.11486 -36.10936,19.30926 -63.26858,28.34777 -52.53635,11.11486 z"
       id="m-tail"
       class="JM-logo__m-tail" />
  </g>
  <path
     style="fill:none;stroke:#ffffff;stroke-width:2.71801;stroke-linecap:round;stroke-linejoin:round;stroke-miterlimit:4;stroke-dasharray:none;stroke-opacity:1;paint-order:normal"
     d="M 10.124659,3.2366662 C 7.2729045,5.5425664 4.9996936,7.9702664 1.3588815,10.110051 c 2.901212,1.863808 3.9699434,2.916214 6.5220952,4.998185 0.3055824,0.249287 1.8691856,1.502017 2.0815626,2.143992"
     id="lt"
     class="JM-logo__lt" />
  <path
     style="display:inline;fill:none;stroke:#ffffff;stroke-width:2.71801;stroke-linecap:round;stroke-linejoin:round;stroke-miterlimit:4;stroke-dasharray:none;stroke-opacity:1;paint-order:normal"
     d="m 57.938471,3.2348672 c 3.125037,1.9370882 5.222618,4.7827552 8.43598,6.8733838 -3.213326,2.061802 -5.63678,4.574962 -8.43598,6.87341"
     id="gt"
     class="JM-logo__gt" />
</svg>
