<?xml version="1.0" encoding="UTF-8" standalone="no"?>
<svg
   width="48"
   height="48"
   viewBox="0 0 12.7 12.7"
   version="1.1"
   id="JM-logo"
   xmlns="http://www.w3.org/2000/svg"
   xmlns:svg="http://www.w3.org/2000/svg">
  <g
     id="jm"
     class="JM-logo__jm-group"
     transform="matrix(0.09170011,0,0,0.09170313,-0.75886456,-6.2761251)">
    <path
       style="fill:none;stroke:#1e90ff;stroke-width:0.46063597;stroke-linecap:round;stroke-linejoin:round;stroke-dasharray:none;stroke-opacity:1;paint-order:normal"
       d="M 4.8316109,5.4228517 C 5.6465734,6.2790966 4.6717066,8.5115074 3.294571,7.0384396"
       id="j"
       class="JM-logo__j"
       transform="matrix(11.926881,0,0,11.926881,3.3511763,65.220303)" />
    <path
       style="display:inline;fill:none;stroke:#1e90ff;stroke-width:0.460197;stroke-linecap:round;stroke-linejoin:round;stroke-dasharray:none;stroke-opacity:1;paint-order:fill markers stroke"
       d="M 3.0811781,5.5995889 C 3.9787587,5.5337547 5.1683458,4.9908901 6.214567,4.8536251 6.4639205,4.8322493 6.4945532,4.9741988 6.5034995,5.0602869 6.4705858,5.2845964 5.8569544,5.9816527 5.7162257,6.28082 6.0800683,6.0683925 6.8357009,5.261013 7.4319926,5.2517005 7.4359592,5.452384 7.2293844,6.0838058 7.5032253,6.1286121 8.1918661,6.0760831 9.170804,5.7888967 9.0801508,6.2665617 l -0.310054,1.3137582"
       id="m"
       class="JM-logo__m"
       transform="matrix(11.926881,0,0,11.926881,3.3511763,65.220303)" />
    <path
       style="fill:none;fill-rule:evenodd;stroke:#1e90ff;stroke-width:0.1;stroke-linecap:round;stroke-linejoin:round;stroke-miterlimit:4;stroke-dasharray:none;stroke-opacity:1;paint-order:fill markers stroke"
       d="M 9.0860271,8.0555686 C 9.5417975,8.0425494 9.6500363,7.9467846 9.8968665,7.8840177 9.3395591,8.1820442 8.9203872,8.3215482 9.0860271,8.0555686 Z"
       id="m-tail"
       class="JM-logo__m-tail"
       transform="matrix(10.905112,0,0,10.904753,8.2755033,68.439595)" />
  </g>
  <path
     style="fill:none;stroke:#ffffff;stroke-width:0.457465;stroke-linecap:round;stroke-linejoin:round;stroke-miterlimit:4;stroke-dasharray:none;stroke-opacity:1;paint-order:normal"
     d="M 2.2172843,5.3045987 C 1.7373107,5.6927008 1.3547108,6.1013027 0.74193251,6.4614459 1.2302301,6.7751402 1.4101063,6.9522688 1.8396542,7.3026817 c 0.051432,0.041957 0.3145992,0.2528017 0.3503441,0.3608514"
     id="lt"
     class="JM-logo__lt" />
  <path
     style="display:inline;fill:none;stroke:#ffffff;stroke-width:0.457465;stroke-linecap:round;stroke-linejoin:round;stroke-miterlimit:4;stroke-dasharray:none;stroke-opacity:1;paint-order:normal"
     d="m 10.264738,5.304296 c 0.525969,0.3260279 0.879009,0.8049769 1.419844,1.1568471 -0.540829,0.3470182 -0.948716,0.7700037 -1.419844,1.1568513"
     id="gt"
     class="JM-logo__gt" />
</svg>
