<?xml version="1.0" encoding="UTF-8" standalone="no"?>
<svg
   width="384"
   height="384"
   viewBox="0 0 384 384"
   version="1.1"
   id="svg5"
   sodipodi:docname="logos--figma.svg"
   inkscape:version="1.3.2 (091e20e, 2023-11-25, custom)"
   xmlns:inkscape="http://www.inkscape.org/namespaces/inkscape"
   xmlns:sodipodi="http://sodipodi.sourceforge.net/DTD/sodipodi-0.dtd"
   xmlns="http://www.w3.org/2000/svg"
   xmlns:svg="http://www.w3.org/2000/svg">
  <defs
     id="defs5" />
  <sodipodi:namedview
     id="namedview5"
     pagecolor="#ffffff"
     bordercolor="#000000"
     borderopacity="0.25"
     inkscape:showpageshadow="2"
     inkscape:pageopacity="0.0"
     inkscape:pagecheckerboard="0"
     inkscape:deskcolor="#d1d1d1"
     inkscape:zoom="1.0247396"
     inkscape:cx="167.35959"
     inkscape:cy="209.32147"
     inkscape:window-width="1920"
     inkscape:window-height="1001"
     inkscape:window-x="-9"
     inkscape:window-y="-9"
     inkscape:window-maximized="1"
     inkscape:current-layer="svg5" />
  <path
     fill="#0acf83"
     d="m 128,384 c 35.328,0 64,-28.672 64,-64 v -64 h -64 c -35.328,0 -64,28.672 -64,64 0,35.328 28.672,64 64,64"
     id="path1" />
  <path
     fill="#a259ff"
     d="m 64,192 c 0,-35.328 28.672,-64 64,-64 h 64 V 256 H 128 C 92.672,256 64,227.328 64,192"
     id="path2" />
  <path
     fill="#f24e1e"
     d="M 64,64 C 64,28.672 92.672,0 128,0 h 64 V 128 H 128 C 92.672,128 64,99.328 64,64"
     id="path3" />
  <path
     fill="#ff7262"
     d="m 192,0 h 64 c 35.328,0 64,28.672 64,64 0,35.328 -28.672,64 -64,64 h -64 z"
     id="path4" />
  <path
     fill="#1abcfe"
     d="m 320,192 c 0,35.328 -28.672,64 -64,64 -35.328,0 -64,-28.672 -64,-64 0,-35.328 28.672,-64 64,-64 35.328,0 64,28.672 64,64"
     id="path5" />
</svg>
