<?xml version="1.0" encoding="UTF-8" standalone="no"?>
<!-- Uploaded to: SVG Repo, www.svgrepo.com, Generator: SVG Repo Mixer Tools -->

<svg
   height="800px"
   width="800px"
   version="1.1"
   id="_x32_"
   viewBox="0 0 512 512"
   xml:space="preserve"
   sodipodi:docname="kcdr-logo.svg"
   inkscape:version="1.3.2 (091e20e, 2023-11-25, custom)"
   xmlns:inkscape="http://www.inkscape.org/namespaces/inkscape"
   xmlns:sodipodi="http://sodipodi.sourceforge.net/DTD/sodipodi-0.dtd"
   xmlns="http://www.w3.org/2000/svg"
   xmlns:svg="http://www.w3.org/2000/svg"><defs
   id="defs2" /><sodipodi:namedview
   id="namedview2"
   pagecolor="#ffffff"
   bordercolor="#000000"
   borderopacity="0.25"
   inkscape:showpageshadow="2"
   inkscape:pageopacity="0.0"
   inkscape:pagecheckerboard="0"
   inkscape:deskcolor="#d1d1d1"
   inkscape:zoom="0.98375"
   inkscape:cx="399.49174"
   inkscape:cy="400"
   inkscape:window-width="1920"
   inkscape:window-height="1001"
   inkscape:window-x="-9"
   inkscape:window-y="-9"
   inkscape:window-maximized="1"
   inkscape:current-layer="_x32_" />
<style
   type="text/css"
   id="style1">
	.st0{fill:#000000;}
</style>
<g
   id="g2">
	<path
   class="st0"
   d="M334.942,111.612c0,0-59.34-118.689-69.245-111.279c0,0-32.138,66.769-24.718,113.738   c0,0-102.048,71.283-104.524,76.226c-2.476,4.953-17.306,46.978-17.306,46.978S20.252,306.512,12.823,313.93   c-7.411,7.422,69.236,84.078,86.543,79.133c17.316-4.953,123.533-32.154,123.533-32.154l13.064,54.533h222.476L334.942,111.612z"
   id="path1" />
	<path
   class="st0"
   d="M468.071,435.471h-227.3L259.096,512H499.68L468.071,435.471z M294.921,489.348   c-7.884,0-14.276-6.383-14.276-14.283c0-7.885,6.392-14.285,14.276-14.285s14.275,6.4,14.275,14.285   C309.196,482.965,302.805,489.348,294.921,489.348z M368.182,489.348c-7.903,0-14.293-6.383-14.293-14.283   c0-7.885,6.39-14.285,14.293-14.285c7.865,0,14.266,6.4,14.266,14.285C382.447,482.965,376.047,489.348,368.182,489.348z    M436.643,489.348c-7.884,0-14.266-6.383-14.266-14.283c0-7.885,6.382-14.285,14.266-14.285c7.884,0,14.284,6.4,14.284,14.285   C450.928,482.965,444.527,489.348,436.643,489.348z"
   id="path2"
   style="fill:#000000;fill-opacity:1" />
</g>
<text
   xml:space="preserve"
   style="font-style:normal;font-variant:normal;font-weight:bold;font-stretch:normal;font-size:152.554px;font-family:Ubuntu;-inkscape-font-specification:'Ubuntu Bold';letter-spacing:-2.496px;fill:#7f4524;stroke:#000000;stroke-width:0;stroke-linejoin:round"
   x="300.57407"
   y="-162.62627"
   id="text2"
   transform="rotate(69.969686)"><tspan
     sodipodi:role="line"
     id="tspan2"
     style="font-style:normal;font-variant:normal;font-weight:bold;font-stretch:normal;font-family:Ubuntu;-inkscape-font-specification:'Ubuntu Bold';letter-spacing:-2.496px;stroke-width:0"
     x="300.57407"
     y="-162.62627">KC</tspan></text></svg>
